<?xml version="1.0" standalone="no"?>
<!DOCTYPE svg PUBLIC "-//W3C//DTD SVG 20010904//EN"
 "http://www.w3.org/TR/2001/REC-SVG-20010904/DTD/svg10.dtd">
<svg version="1.0" xmlns="http://www.w3.org/2000/svg"
 width="512.000000pt" height="510.000000pt" viewBox="0 0 512.000000 510.000000"
 preserveAspectRatio="xMidYMid meet">

<g transform="translate(0.000000,510.000000) scale(0.100000,-0.100000)"
fill="#000000" stroke="none">
<path d="M524 5060 c-97 -47 -162 -112 -207 -208 l-32 -67 -5 -750 c-6 -860 2
-3340 11 -3349 3 -4 216 -9 473 -13 l467 -6 20 -25 c27 -35 24 -84 -7 -121
l-26 -31 -609 0 -609 0 0 -245 0 -245 1760 0 1760 0 0 245 0 245 -135 0 -135
0 0 1255 c0 1045 2 1255 13 1255 23 0 129 -75 173 -121 53 -56 107 -140 129
-204 16 -45 19 -118 26 -740 11 -937 8 -881 51 -992 19 -50 50 -118 69 -150
44 -74 178 -208 253 -252 127 -75 320 -120 455 -107 306 31 566 237 657 521
14 44 30 89 35 100 15 31 5 279 -15 360 -27 112 -73 244 -115 325 -21 41 -76
149 -123 240 -93 181 -132 299 -167 510 -20 117 -38 326 -44 503 l-3 97 193 0
193 0 -6 58 c-16 147 -106 436 -185 595 -156 316 -488 663 -780 817 -42 22
-129 60 -194 86 -94 36 -120 43 -126 32 -17 -25 -90 -263 -96 -311 -6 -47 -5
-48 28 -60 19 -6 86 -37 149 -69 276 -136 413 -261 505 -462 100 -215 110
-286 145 -991 23 -452 76 -663 240 -955 176 -312 200 -386 200 -605 0 -112 -4
-153 -19 -196 -34 -100 -73 -163 -145 -235 -221 -221 -560 -220 -781 1 -88 88
-142 189 -155 291 -5 38 -10 229 -11 424 0 195 -4 528 -9 740 -8 432 -8 428
-88 585 -37 73 -64 108 -142 186 -93 94 -152 131 -292 188 l-28 11 -1 477 c0
263 -4 618 -8 788 l-6 310 -28 59 c-45 97 -84 137 -193 194 l-98 52 -1151 0
-1150 0 -81 -40z m2191 -478 c22 -15 52 -45 67 -67 l27 -40 1 -657 c0 -431 -4
-674 -11 -707 -11 -53 -47 -98 -104 -129 -27 -16 -109 -17 -925 -17 -492 0
-907 3 -922 8 -40 11 -98 66 -119 112 -17 37 -19 83 -19 705 0 625 2 667 19
705 10 22 30 51 44 63 56 52 36 51 1002 51 l900 0 40 -27z"/>
</g>
</svg>
